# xmcd CD database file generated by OrangeCD 5.2
#
# Track frame offsets:
#	150
#	21063
#	40613
#	61563
#	83300
#	102075
#	130488
#	150538
#	173325
#	201375
#
# Disc length: 3068 seconds
#
# Revision: 0
# Processed by: cddbd v1.5PL3 Copyright (c) Steve Scherf et al.
# Submitted via: OrangeCD 5.2
#
DISCID=670bfa0a
DTITLE=Abu Talib - The Real Thing At Last
DYEAR=1994
DGENRE=Blues
TTITLE0=Lizzy May
TTITLE1=The Real Thing At Last
TTITLE2=Double Ugly
TTITLE3=The Legend Of Sister Sharp Eye
TTITLE4=The Psychic Hot Line
TTITLE5=Blues In The Hood
TTITLE6=I'm Arrogant
TTITLE7=A Simple Blues Song
TTITLE8=I Left My Mind In Chicago
TTITLE9=Blues Lover's Waltz
EXTD=
EXTT0=
EXTT1=
EXTT2=
EXTT3=
EXTT4=
EXTT5=
EXTT6=
EXTT7=
EXTT8=
EXTT9=
PLAYORDER=
